<svg xmlns="http://www.w3.org/2000/svg" width="180" height="100" viewBox="0 0 180 100">
  <defs>
    <style>
      .cls-1 {
        fill: #737375;
        opacity: 0;
      }

      .cls-2 {
        opacity: 0.47;
      }

      .cls-3 {
        fill: #3c4252;
      }
    </style>
  </defs>
  <g id="group_96" data-name="group 96" transform="translate(-1090 -3299)">
    <rect id="rectangle_56" data-name="rectangle 56" class="cls-1" width="180" height="100" transform="translate(1090 3299)"/>
    <g id="group_32" data-name="group 32" class="cls-2" transform="translate(31.973 2798)">
      <rect id="rectangle_22" data-name="rectangle 22" class="cls-3" width="0.007" height="12.506" transform="translate(1107.059 548.191) rotate(-45)"/>
      <path id="path_88" data-name="path 88" class="cls-3" d="M1150.068,548.29h3.878v-1.759h-3.878V544.84h4.183v-1.759h-6.516v9.092h2.333Z" transform="translate(-10.734 -2.009)"/>
      <path id="path_89" data-name="path 89" class="cls-3" d="M1163.676,551.926a4.108,4.108,0,0,0,.006-5.334,4.423,4.423,0,0,0-5.538-.006,4.1,4.1,0,0,0-.006,5.34,4.424,4.424,0,0,0,5.539,0Zm-3.838-1.017a1.717,1.717,0,0,1-.305-.662,4.011,4.011,0,0,1-.1-.974,3.88,3.88,0,0,1,.119-1.044,1.76,1.76,0,0,1,.321-.653,1.148,1.148,0,0,1,.474-.342,1.729,1.729,0,0,1,.565-.085,1.657,1.657,0,0,1,.592.1,1.07,1.07,0,0,1,.47.354,1.763,1.763,0,0,1,.306.653,3.966,3.966,0,0,1,.11,1.014,3.857,3.857,0,0,1-.107,1.023,1.749,1.749,0,0,1-.321.632,1.044,1.044,0,0,1-.461.339,1.633,1.633,0,0,1-.57.1,1.657,1.657,0,0,1-.62-.109A1.164,1.164,0,0,1,1159.838,550.909Z" transform="translate(-12.614 -2.517)"/>
      <path id="path_90" data-name="path 90" class="cls-3" d="M1170.745,548.142a4.655,4.655,0,0,1,.774-.208,5.011,5.011,0,0,1,.829-.061q.207,0,.518.024a1.979,1.979,0,0,1,.451.073h.2v-2.094c-.073-.008-.159-.014-.256-.018s-.185-.006-.262-.006a2.789,2.789,0,0,0-.988.205,4.574,4.574,0,0,0-1.261.827v-1.008h-2.2v6.857h2.2Z" transform="translate(-14.895 -2.564)"/>
      <path id="path_91" data-name="path 91" class="cls-3" d="M1176.8,551.941a4.775,4.775,0,0,0,3.163.928,7.35,7.35,0,0,0,1.46-.134,8.078,8.078,0,0,0,1.4-.434v-1.765h-.244a4.206,4.206,0,0,1-1.031.538,3.745,3.745,0,0,1-1.35.251,2.731,2.731,0,0,1-1.664-.428,1.582,1.582,0,0,1-.613-1.233h5.031v-.77a3.3,3.3,0,0,0-.842-2.433,3.408,3.408,0,0,0-2.516-.846,3.969,3.969,0,0,0-2.854.992,3.539,3.539,0,0,0-1.041,2.689A3.271,3.271,0,0,0,1176.8,551.941Zm1.575-4.623a1.614,1.614,0,0,1,1.044-.329,1.317,1.317,0,0,1,1.008.348,1.537,1.537,0,0,1,.342,1.039h-2.852A1.407,1.407,0,0,1,1178.38,547.318Z" transform="translate(-16.323 -2.517)"/>
      <path id="path_92" data-name="path 92" class="cls-3" d="M1191.634,552.231a1.988,1.988,0,0,0,.953-1.713,1.8,1.8,0,0,0-.415-1.213,2.445,2.445,0,0,0-1.283-.711c-.26-.065-.52-.12-.779-.162s-.5-.087-.723-.132a2.248,2.248,0,0,1-.776-.256.444.444,0,0,1-.165-.373c0-.18.121-.318.364-.416a2.4,2.4,0,0,1,.894-.146,3.923,3.923,0,0,1,1.267.211,4.467,4.467,0,0,1,1.115.546h.189v-1.734a6.039,6.039,0,0,0-1.1-.333,6.869,6.869,0,0,0-1.474-.156,4.4,4.4,0,0,0-2.562.657,1.951,1.951,0,0,0-.936,1.646,1.879,1.879,0,0,0,.451,1.285,2.691,2.691,0,0,0,1.386.76,6.877,6.877,0,0,0,.76.156q.419.065.663.12a2.38,2.38,0,0,1,.7.217.394.394,0,0,1,.183.363.457.457,0,0,1-.311.424,2.412,2.412,0,0,1-.959.144,4.1,4.1,0,0,1-.928-.1,5.033,5.033,0,0,1-.775-.242,3.828,3.828,0,0,1-.614-.3c-.144-.092-.271-.176-.381-.254h-.2v1.808a6.309,6.309,0,0,0,1.2.379,7.429,7.429,0,0,0,1.661.171A4.57,4.57,0,0,0,1191.634,552.231Z" transform="translate(-18.415 -2.523)"/>
      <rect id="rectangle_23" data-name="rectangle 23" class="cls-3" width="2.204" height="6.857" transform="translate(1175.645 543.312)"/>
      <rect id="rectangle_24" data-name="rectangle 24" class="cls-3" width="2.327" height="1.667" transform="translate(1175.584 540.655)"/>
      <path id="path_93" data-name="path 93" class="cls-3" d="M1203.79,552.594a2.916,2.916,0,0,0,1.073-.189,3.271,3.271,0,0,0,.878-.513v.128a2.721,2.721,0,0,1-.085.732,1.15,1.15,0,0,1-.274.5,1.321,1.321,0,0,1-.582.321,3.588,3.588,0,0,1-.991.112,4.776,4.776,0,0,1-1.036-.131,6.808,6.808,0,0,1-.981-.29h-.269v1.716a10.835,10.835,0,0,0,1.2.207,11.383,11.383,0,0,0,1.407.086,6.791,6.791,0,0,0,1.579-.168,3.154,3.154,0,0,0,1.194-.546,2.422,2.422,0,0,0,.769-1.032,4.222,4.222,0,0,0,.275-1.624v-6.069h-2.137l-.08.3a3.3,3.3,0,0,0-.827-.363,3.621,3.621,0,0,0-1.009-.132,3.184,3.184,0,0,0-1.2.238,2.762,2.762,0,0,0-.991.665,3.252,3.252,0,0,0-.672,1.075,4.085,4.085,0,0,0-.238,1.466,3.842,3.842,0,0,0,.781,2.637A2.832,2.832,0,0,0,1203.79,552.594Zm-.3-4.845a1.628,1.628,0,0,1,1.3-.5,3.047,3.047,0,0,1,.494.045,2.105,2.105,0,0,1,.463.125v3.108a2.419,2.419,0,0,1-.579.274,2.049,2.049,0,0,1-.645.1,1.436,1.436,0,0,1-1.094-.391,2.011,2.011,0,0,1-.368-1.38A2.05,2.05,0,0,1,1203.487,547.749Z" transform="translate(-21.289 -2.519)"/>
      <path id="path_94" data-name="path 94" class="cls-3" d="M1216.857,547.233a1.731,1.731,0,0,1,.146.608,8.036,8.036,0,0,1,.043.827v3.4h2.2v-4.464a2.687,2.687,0,0,0-.625-1.935,2.3,2.3,0,0,0-1.735-.648,2.86,2.86,0,0,0-1.2.245,5.609,5.609,0,0,0-1.126.7v-3.4h-2.2v9.5h2.2v-4.861a3.285,3.285,0,0,1,.669-.312,2.023,2.023,0,0,1,.608-.1,1.667,1.667,0,0,1,.657.1A.739.739,0,0,1,1216.857,547.233Z" transform="translate(-23.63 -1.907)"/>
      <path id="path_95" data-name="path 95" class="cls-3" d="M1227.719,546.875v-1.489h-2.052v-1.96h-2.2v1.96h-.9v1.489h.9v3.206a2.194,2.194,0,0,0,.625,1.777,2.947,2.947,0,0,0,1.908.519,7.555,7.555,0,0,0,.971-.052,6.242,6.242,0,0,0,.751-.143v-1.5h-.183a1.872,1.872,0,0,1-.387.135,1.836,1.836,0,0,1-.448.073,1.274,1.274,0,0,1-.63-.125.675.675,0,0,1-.3-.339,1.27,1.27,0,0,1-.1-.483q-.006-.269-.006-.63v-2.434Z" transform="translate(-25.692 -2.078)"/>
      <path id="path_96" data-name="path 96" class="cls-3" d="M1151.127,565.431l-2.2-6.383h-2.464l3.316,9.092h2.626l3.316-9.092h-2.4Z" transform="translate(-10.477 -5.19)"/>
      <path id="path_97" data-name="path 97" class="cls-3" d="M1162.823,561.582a3.966,3.966,0,0,0-2.855.992,3.539,3.539,0,0,0-1.041,2.689,3.269,3.269,0,0,0,1.1,2.644,4.777,4.777,0,0,0,3.163.928,7.343,7.343,0,0,0,1.459-.134,8.242,8.242,0,0,0,1.4-.434V566.5h-.244a4.249,4.249,0,0,1-1.032.538,3.746,3.746,0,0,1-1.35.25,2.728,2.728,0,0,1-1.663-.428,1.582,1.582,0,0,1-.614-1.234h5.031v-.769a3.3,3.3,0,0,0-.842-2.433A3.406,3.406,0,0,0,1162.823,561.582Zm-1.679,2.759a1.4,1.4,0,0,1,.458-1.056,1.614,1.614,0,0,1,1.044-.329,1.316,1.316,0,0,1,1.008.348,1.54,1.54,0,0,1,.341,1.038Z" transform="translate(-12.97 -5.701)"/>
      <path id="path_98" data-name="path 98" class="cls-3" d="M1174.492,561.612a2.875,2.875,0,0,0-1.2.244,5.578,5.578,0,0,0-1.125.7V561.8h-2.2v6.857h2.2V563.8a3.291,3.291,0,0,1,.669-.311,2,2,0,0,1,.608-.1,1.669,1.669,0,0,1,.657.1.732.732,0,0,1,.357.329,1.742,1.742,0,0,1,.147.608,7.955,7.955,0,0,1,.043.827v3.4h2.2V564.2a2.681,2.681,0,0,0-.625-1.935A2.3,2.3,0,0,0,1174.492,561.612Z" transform="translate(-15.176 -5.707)"/>
      <path id="path_99" data-name="path 99" class="cls-3" d="M1183.269,559.392h-2.2v1.96h-.9v1.49h.9v3.206a2.2,2.2,0,0,0,.626,1.777,2.944,2.944,0,0,0,1.908.519,7.724,7.724,0,0,0,.971-.052,6.244,6.244,0,0,0,.752-.143v-1.5h-.183a1.88,1.88,0,0,1-.387.134,1.813,1.813,0,0,1-.448.073,1.275,1.275,0,0,1-.63-.125.684.684,0,0,1-.3-.339,1.3,1.3,0,0,1-.1-.483q-.006-.269-.005-.63v-2.434h2.052v-1.49h-2.052Z" transform="translate(-17.217 -5.259)"/>
      <path id="path_100" data-name="path 100" class="cls-3" d="M1192.889,566.71a2.657,2.657,0,0,1-.659.306,2.157,2.157,0,0,1-.623.1,1.665,1.665,0,0,1-.657-.1.7.7,0,0,1-.351-.33,1.505,1.505,0,0,1-.156-.571q-.033-.345-.033-.864v-3.4h-2.2v4.464a2.726,2.726,0,0,0,.613,1.93,2.281,2.281,0,0,0,1.748.653,2.783,2.783,0,0,0,1.208-.242,6.493,6.493,0,0,0,1.115-.705v.757h2.2v-6.857h-2.2Z" transform="translate(-18.821 -5.755)"/>
      <path id="path_101" data-name="path 101" class="cls-3" d="M1203.9,561.819a2.788,2.788,0,0,0-.988.2,4.573,4.573,0,0,0-1.26.827v-1.008h-2.205V568.7h2.205v-4.592a4.7,4.7,0,0,1,.774-.207,4.984,4.984,0,0,1,.828-.061c.138,0,.311.009.519.025a1.991,1.991,0,0,1,.451.073h.195v-2.095c-.073-.008-.159-.014-.256-.018S1203.972,561.819,1203.9,561.819Z" transform="translate(-21.072 -5.749)"/>
      <path id="path_102" data-name="path 102" class="cls-3" d="M1210.5,561.582a3.965,3.965,0,0,0-2.854.992,3.539,3.539,0,0,0-1.041,2.689,3.269,3.269,0,0,0,1.1,2.644,4.777,4.777,0,0,0,3.163.928,7.343,7.343,0,0,0,1.459-.134,8.244,8.244,0,0,0,1.4-.434V566.5h-.244a4.252,4.252,0,0,1-1.032.538,3.745,3.745,0,0,1-1.35.25,2.733,2.733,0,0,1-1.664-.428,1.586,1.586,0,0,1-.613-1.234h5.031v-.769a3.3,3.3,0,0,0-.842-2.433A3.408,3.408,0,0,0,1210.5,561.582Zm-1.679,2.759a1.409,1.409,0,0,1,.459-1.056,1.612,1.612,0,0,1,1.044-.329,1.313,1.313,0,0,1,1.008.348,1.536,1.536,0,0,1,.342,1.038Z" transform="translate(-22.466 -5.701)"/>
      <path id="path_103" data-name="path 103" class="cls-3" d="M1221.791,564.561c-.261-.065-.52-.119-.779-.161s-.5-.087-.723-.132a2.228,2.228,0,0,1-.776-.257.444.444,0,0,1-.164-.372c0-.179.12-.318.363-.415a2.394,2.394,0,0,1,.9-.147,3.951,3.951,0,0,1,1.267.211,4.5,4.5,0,0,1,1.115.546h.189V562.1a6.022,6.022,0,0,0-1.1-.333,6.827,6.827,0,0,0-1.474-.156,4.4,4.4,0,0,0-2.561.656,1.949,1.949,0,0,0-.937,1.646,1.879,1.879,0,0,0,.452,1.285,2.692,2.692,0,0,0,1.386.76,6.955,6.955,0,0,0,.76.156q.418.065.662.12a2.35,2.35,0,0,1,.7.217.394.394,0,0,1,.184.363.458.458,0,0,1-.312.424,2.415,2.415,0,0,1-.959.143,4.145,4.145,0,0,1-.928-.1,5.143,5.143,0,0,1-.775-.242,3.988,3.988,0,0,1-.614-.3c-.144-.092-.271-.176-.381-.254h-.2V568.3a6.289,6.289,0,0,0,1.2.378,7.424,7.424,0,0,0,1.661.171,4.569,4.569,0,0,0,2.607-.65,1.989,1.989,0,0,0,.952-1.714,1.8,1.8,0,0,0-.415-1.212A2.446,2.446,0,0,0,1221.791,564.561Z" transform="translate(-24.582 -5.707)"/>
      <path id="path_104" data-name="path 104" class="cls-3" d="M1107.57,550.467l8.844,8.842,0,0,0,0-2.142,2.143-8.849-8.849-8.893,8.9a17.953,17.953,0,0,0,32.552-1.367l-15.593-15.593Z" transform="translate(-0.506 -2.235)"/>
      <path id="path_105" data-name="path 105" class="cls-3" d="M1110.363,550.46l0,0,5.919-5.919,15.593,15.593-15.593-15.6Z" transform="translate(-3.304 -2.288)"/>
      <path id="path_106" data-name="path 106" class="cls-3" d="M1118.669,561.363l0,0-2.137,2.138-8.849-8.84,8.849,8.849Z" transform="translate(-2.761 -4.316)"/>
      <path id="path_107" data-name="path 107" class="cls-3" d="M1121.511,535.735a17.953,17.953,0,0,0-26.724,20.379l7.99-7.988,2.14-2.142,5.924-5.924,2.143-2.14,2.142,2.14,14.451,14.453A17.952,17.952,0,0,0,1121.511,535.735Z" transform="translate(0 0)"/>
    </g>
  </g>
</svg>
