<svg xmlns="http://www.w3.org/2000/svg" width="180" height="100" viewBox="0 0 180 100">
  <defs>
    <style>
      .cls-1 {
        fill: #737375;
        opacity: 0;
      }

      .cls-2 {
        opacity: 0.47;
      }

      .cls-3 {
        fill: #3c4252;
      }
    </style>
  </defs>
  <g id="group_85" data-name="group 85" transform="translate(-882 -3067)">
    <rect id="rectangle_45" data-name="rectangle 45" class="cls-1" width="180" height="100" transform="translate(882 3067)"/>
    <g id="group_5" data-name="group 5" class="cls-2" transform="translate(16.381 2772.246)">
      <path id="path_2" data-name="path 2" class="cls-3" d="M959.858,340.486a10.81,10.81,0,0,1,1.359.326,4.832,4.832,0,0,1,3.195,3.54,8.568,8.568,0,0,1-1.224-.019c-.115-.019-.249-.229-.326-.364a3.729,3.729,0,0,0-4.974-1.99,3.961,3.961,0,0,0-2.028,2.028,6.473,6.473,0,0,0,.383,6.448,3.5,3.5,0,0,0,3.367,1.684,3.6,3.6,0,0,0,3.081-2.219,9.066,9.066,0,0,0,.4-1.091h1.3a5.649,5.649,0,0,1-1.378,2.908,4.653,4.653,0,0,1-2.985,1.55.4.4,0,0,0-.21.076h-1.014c-.077-.019-.134-.057-.211-.076a4.628,4.628,0,0,1-3.6-2.239,7.886,7.886,0,0,1-.746-6.486,5.21,5.21,0,0,1,3.654-3.846c.287-.1.593-.133.9-.21C959.113,340.486,959.495,340.486,959.858,340.486Z" transform="translate(-12.261 -2.043)"/>
      <path id="path_3" data-name="path 3" class="cls-3" d="M1042.472,353.058h-7.4V341h1.263v10.887h6.123C1042.472,352.273,1042.472,352.675,1042.472,353.058Z" transform="translate(-30.6 -2.16)"/>
      <path id="path_4" data-name="path 4" class="cls-3" d="M979.955,353.062a11.805,11.805,0,0,1-1.186-.019c-.115,0-.249-.153-.306-.267-.383-1.033-.765-2.047-1.11-3.081-.1-.249-.191-.344-.459-.344q-2.238.029-4.477,0a.425.425,0,0,0-.478.326c-.383,1.129-.8,2.238-1.205,3.348h-1.416c.288-.785.555-1.55.842-2.3,1.148-3.1,2.3-6.218,3.425-9.318.115-.305.249-.5.632-.459.439.057,1.014-.115,1.32.1s.344.784.5,1.205c1.263,3.444,2.526,6.907,3.769,10.351C979.859,352.756,979.9,352.89,979.955,353.062Zm-5.3-10.848c-.727,2.028-1.415,3.98-2.143,5.969h4.267C976.071,346.194,975.382,344.242,974.655,342.214Z" transform="translate(-15.749 -2.145)"/>
      <path id="path_5" data-name="path 5" class="cls-3" d="M1019.928,353.052h-1.4c.057-.153.077-.287.134-.4q2.094-5.654,4.151-11.307a.446.446,0,0,1,.536-.364,7.52,7.52,0,0,0,1.129,0,.334.334,0,0,1,.382.249c1.416,3.9,2.832,7.787,4.247,11.69.019.038,0,.076.019.153-.4,0-.8.019-1.205-.019-.1,0-.21-.153-.249-.267-.382-1-.746-2.009-1.09-3.023a.476.476,0,0,0-.536-.4c-1.454.019-2.928.019-4.381,0a.469.469,0,0,0-.517.383C1020.731,350.852,1020.31,351.942,1019.928,353.052Zm6.026-4.86c-.708-2.009-1.416-3.96-2.123-5.988-.727,2.047-1.416,4-2.143,5.988Z" transform="translate(-26.883 -2.154)"/>
      <path id="path_6" data-name="path 6" class="cls-3" d="M987.431,347.906v5.147H986.15V341c.133,0,.249-.019.382-.019h4.3a3.46,3.46,0,0,1,.555,6.888,3.848,3.848,0,0,1-.67.038C989.651,347.925,988.56,347.906,987.431,347.906Zm.019-5.7v4.535a.606.606,0,0,0,.172.019c1.091,0,2.162.019,3.253-.019a2.309,2.309,0,0,0,2.181-2.239,2.166,2.166,0,0,0-2.066-2.277C989.823,342.147,988.656,342.2,987.451,342.2Z" transform="translate(-19.55 -2.154)"/>
      <path id="path_7" data-name="path 7" class="cls-3" d="M1011.559,353.063h-1.32V342.177h-4v-1.148h9.279v1.148h-3.98C1011.559,345.812,1011.559,349.409,1011.559,353.063Z" transform="translate(-24.09 -2.165)"/>
      <path id="path_8" data-name="path 8" class="cls-3" d="M1001.936,353.063h-1.225V341.029h1.225Z" transform="translate(-22.832 -2.165)"/>
      <g id="group_4" data-name="group 4" transform="translate(899.619 331.478)">
        <path id="path_9" data-name="path 9" class="cls-3" d="M915.021,349.615a.194.194,0,0,0-.134.076.559.559,0,0,0-.1.248,8.209,8.209,0,0,1-.708,1.871,7.024,7.024,0,0,1-1.014,1.489,4,4,0,0,1-1.856,1.146,4.577,4.577,0,0,1-1.224.21c-1.608.019-3.233,0-4.841,0-.057,0-.115-.019-.21-.019V337.853a.12.12,0,0,1,.134-.133h2.7v-.344h-8.15v.344h2.793v16.936h-2.774v.324h15.516v-5.27A.192.192,0,0,0,915.021,349.615Z" transform="translate(-899.619 -332.804)"/>
        <rect id="rectangle_5" data-name="rectangle 5" class="cls-3" width="0.574" height="26.788" transform="translate(18.673)"/>
        <path id="path_10" data-name="path 10" class="cls-3" d="M939.073,344.31c0-.019-.019-.152-.019-.152-.057-.21-.1-.42-.153-.63a8.262,8.262,0,0,0-1.3-2.673,6.95,6.95,0,0,0-1.205-1.28,10.328,10.328,0,0,0-1.339-.916,9.739,9.739,0,0,0-1.645-.726,8.7,8.7,0,0,0-1.492-.4c-.4-.057-.8-.114-1.187-.152-.267-.019-.536-.038-.8-.038-.44-.019-.9-.039-1.34-.039-.267,0-.555.019-.823.039-.249.019-.478.019-.727.038.038.306.038.325.326.325.325,0,.669-.039.995-.039a13.442,13.442,0,0,1,2.315.134c.364.077.708.134,1.053.229a7.3,7.3,0,0,1,1.263.516,5.318,5.318,0,0,1,1.281.955,5.9,5.9,0,0,1,1.282,1.985,10.347,10.347,0,0,1,.631,2.52c0,.077.019.306.019.306a21.8,21.8,0,0,1,.039,3.456s-.019.134-.019.173c-.057.458-.115.916-.211,1.375a7.314,7.314,0,0,1-.536,1.661c-.172.363-.364.706-.536,1.05a4.785,4.785,0,0,1-.88,1.165,5.543,5.543,0,0,1-2.334,1.3,9.647,9.647,0,0,1-1.8.248c-.574.038-1.167.019-1.76.019h-.995c-.1.229-.077.267.172.286a4.476,4.476,0,0,0,.5.038c1.09.019,2.162.039,3.252-.038a10.029,10.029,0,0,0,1.512-.229,8.25,8.25,0,0,0,1.875-.707,11.959,11.959,0,0,0,1.4-.859,7.428,7.428,0,0,0,1.7-1.661,8.933,8.933,0,0,0,1.014-1.757,9.269,9.269,0,0,0,.536-1.852,1.27,1.27,0,0,0,.019-.191A13.009,13.009,0,0,0,939.073,344.31Z" transform="translate(-905.783 -332.787)"/>
      </g>
    </g>
  </g>
</svg>
