<svg xmlns="http://www.w3.org/2000/svg" width="180" height="100" viewBox="0 0 180 100">
  <defs>
    <style>
      .cls-1 {
        fill: #fff;
        opacity: 0;
      }

      .cls-2 {
        opacity: 0.474;
      }

      .cls-3 {
        fill: #3c4252;
      }

      .cls-4 {
        fill: none;
        stroke: #3c4252;
        stroke-miterlimit: 10;
        stroke-width: 1.977px;
      }
    </style>
  </defs>
  <g id="group_202" data-name="group 202" transform="translate(-0.001 -0.477)">
    <rect id="rectangle_51" data-name="rectangle 51" class="cls-1" width="180" height="100" transform="translate(0.001 0.477)"/>
    <g id="group_2007" data-name="group 2007" class="cls-2" transform="translate(35 32.478)">
      <g id="group_1" data-name="group 1" transform="translate(40.18)">
        <path id="path_1" data-name="path 1" class="cls-3" d="M977.771,311.545v0h0a1.5,1.5,0,0,0-1.488,1.477,1.57,1.57,0,0,0,.924,1.424,1.545,1.545,0,0,0,1.624-.353,1.442,1.442,0,0,0,.44-1.06,1.4,1.4,0,0,0-.44-1.05A1.445,1.445,0,0,0,977.771,311.545Z" transform="translate(-928.79 -295.582)"/>
        <path id="path_2" data-name="path 2" class="cls-3" d="M674.565,205.6H673.45a.869.869,0,0,0-.861.871v.618a5.464,5.464,0,0,0-4.013-1.844,5.529,5.529,0,0,0-4.317,1.926,6.883,6.883,0,0,0-1.723,4.8,7.115,7.115,0,0,0,1.723,4.895,5.669,5.669,0,0,0,8.33.2V218.3a1.077,1.077,0,0,0,1.074,1.084h1.895V206.591A1,1,0,0,0,674.565,205.6Zm-2.807,9.414a3.41,3.41,0,0,1-2.655,1.125,3.21,3.21,0,0,1-2.554-1.165,4.462,4.462,0,0,1-.993-3,4.3,4.3,0,0,1,1.013-2.9,3.292,3.292,0,0,1,2.554-1.155,3.332,3.332,0,0,1,2.635,1.145,4.872,4.872,0,0,1,0,5.949Z" transform="translate(-649.524 -200.965)"/>
        <path id="path_3" data-name="path 3" class="cls-3" d="M746.445,294.106h0Z" transform="translate(-724.211 -280.062)"/>
        <path id="path_4" data-name="path 4" class="cls-3" d="M746.447,294.106Z" transform="translate(-724.213 -280.062)"/>
        <path id="path_5" data-name="path 5" class="cls-3" d="M557.153,206.5a.9.9,0,0,0-.9-.891h-1.166a.9.9,0,0,0-.9.891v.548a5.174,5.174,0,0,0-4.023-1.8,5.465,5.465,0,0,0-4.449,2.077,7.4,7.4,0,0,0-1.571,4.763,7.006,7.006,0,0,0,1.692,4.8,5.448,5.448,0,0,0,4.287,1.9,5.544,5.544,0,0,0,4.064-1.794v1.784c0,2.665-1.074,3.993-3.243,3.993a3.168,3.168,0,0,1-2.686-1.2,2.679,2.679,0,0,1-.4-.76,1.048,1.048,0,0,0-.993-.71h-1.115a.883.883,0,0,0-.851,1.095,5.457,5.457,0,0,0,1.784,2.848,6.368,6.368,0,0,0,4.226,1.378,6.035,6.035,0,0,0,4.783-2,5.514,5.514,0,0,0,1.236-2.493,10.791,10.791,0,0,0,.162-1.216c.041-.456.061-.993.061-1.6v-1.854a7.323,7.323,0,0,1-1.246-4.287,7.09,7.09,0,0,1,1.246-4.206Zm-3.76,8.411a3.238,3.238,0,0,1-2.686,1.226,3.18,3.18,0,0,1-2.655-1.226,4.453,4.453,0,0,1-.882-2.858,4.533,4.533,0,0,1,.882-2.9,3.2,3.2,0,0,1,2.655-1.247,3.3,3.3,0,0,1,2.594,1.135,4.317,4.317,0,0,1,1,2.989A4.431,4.431,0,0,1,553.393,214.911Z" transform="translate(-544.141 -200.965)"/>
        <path id="path_6" data-name="path 6" class="cls-3" d="M628.366,293.187h0Z" transform="translate(-619.109 -279.244)"/>
        <path id="path_7" data-name="path 7" class="cls-3" d="M802.525,170.964h0v-.009h-6.141v-3.76a.875.875,0,0,0-.876-.876h-1.2a.886.886,0,0,0-.886.886v3.75h-1.264v2.762h1.263V184.73h1.689a1.269,1.269,0,0,0,1.272-1.266v-9.745h3.037a6.208,6.208,0,0,1,.875-1.268A5.48,5.48,0,0,1,802.525,170.964Z" transform="translate(-764.903 -166.319)"/>
        <path id="path_8" data-name="path 8" class="cls-3" d="M1008.41,166.318a1.936,1.936,0,0,0-1.921,1.909,1.932,1.932,0,0,0,1.936,1.948,1.813,1.813,0,0,0,1.354-.566,1.871,1.871,0,0,0,.568-1.368,1.815,1.815,0,0,0-.567-1.354A1.863,1.863,0,0,0,1008.41,166.318Z" transform="translate(-955.675 -166.318)"/>
        <path id="path_9" data-name="path 9" class="cls-3" d="M1012.635,221.7h-1.073a1,1,0,0,0-1,1v9.4a1.4,1.4,0,0,1,.334.942,1.416,1.416,0,0,1-.334.947v.529h1.906a1.056,1.056,0,0,0,1.056-1.058V222.585A.888.888,0,0,0,1012.635,221.7Z" transform="translate(-959.302 -215.612)"/>
        <path id="path_10" data-name="path 10" class="cls-3" d="M1061.318,222.331a7,7,0,0,0-9.708-.02,6.385,6.385,0,0,0-1.986,4.732,6.636,6.636,0,0,0,1.946,4.895,6.509,6.509,0,0,0,4.834,1.976,6.807,6.807,0,0,0,4.9-1.935,6.863,6.863,0,0,0,.01-9.647Zm-2.088,7.813a4,4,0,0,1-5.553-.01,4.319,4.319,0,0,1-1.034-3.04,4.112,4.112,0,0,1,1.054-2.919,3.939,3.939,0,0,1,5.533,0,4.825,4.825,0,0,1,0,5.969Z" transform="translate(-994.07 -214.425)"/>
        <path id="path_11" data-name="path 11" class="cls-3" d="M871.335,224.885c-1.672-.041-5.7-.081-5.857-.081a3.092,3.092,0,0,1-2.321-.922,3.829,3.829,0,0,1-1.034-2.513h8.482a.711.711,0,0,0,.719-.7,7.074,7.074,0,0,0-1.631-4.956,6.424,6.424,0,0,0-8.979.051,7.1,7.1,0,0,0-1.682,4.925,6.914,6.914,0,0,0,1.733,4.915,5.7,5.7,0,0,0,2.979,1.682,6.274,6.274,0,0,0,1.52.162c1.622.041,3.081.071,4.631.1h.01l1.409.031v-.3a1.4,1.4,0,0,1-.365-.77,1.926,1.926,0,0,1-.02-.243,1.427,1.427,0,0,1,.395-1Zm-8.594-6.921a2.764,2.764,0,0,1,.669-.74,2.649,2.649,0,0,1,.861-.476,3,3,0,0,1,1.013-.162,2.839,2.839,0,0,1,2.989,2.361h-5.959A3.615,3.615,0,0,1,862.742,217.964Z" transform="translate(-824.425 -208.679)"/>
      </g>
      <path id="path_12" data-name="path 12" class="cls-3" d="M192.148,185.281l-.309-.31a.372.372,0,0,0-.634.262v4.428a.372.372,0,0,0,.373.371h4.431a.371.371,0,0,0,.262-.633.371.371,0,0,1,0-.524l4.713-4.724a.371.371,0,0,0,0-.524l-.429-.427a.371.371,0,0,1,.262-.633h4.428a.372.372,0,0,1,.372.371v4.428a.373.373,0,0,1-.635.262l-.3-.3a.363.363,0,0,0-.524,0l-7.945,7.939a.374.374,0,0,1-.525,0l-9.72-9.717a.37.37,0,0,1,0-.524l0,0,13.456-13.451a.373.373,0,0,0,0-.525l-3.164-3.163a.374.374,0,0,0-.526,0L178.316,185.3a.372.372,0,0,0,0,.525l17.418,17.412a.374.374,0,0,0,.526,0l17.418-17.412a.372.372,0,0,0,0-.524L203.43,175.057a.372.372,0,0,0-.524,0l-10.232,10.224a.37.37,0,0,1-.524,0l0,0Z" transform="translate(-178.208 -167.617)"/>
      <line id="line_1" data-name="line 1" class="cls-4" x1="21.071" transform="translate(88.333 27.259)"/>
      <line id="line_2" data-name="line 2" class="cls-4" x1="21.071" transform="translate(39.911 27.368)"/>
      <g id="group_2" data-name="group 2" transform="translate(64.742 22.457)">
        <path id="path_13" data-name="path 13" class="cls-3" d="M791.963,402.293v2.522a.6.6,0,0,1-.623.623.656.656,0,0,1-.6-.623,2.82,2.82,0,0,1-2.083.617,3.19,3.19,0,0,1-2.868-2.5,3.149,3.149,0,0,1,3.625-3.672A3.05,3.05,0,0,1,791.963,402.293Zm-1.321.721a1.9,1.9,0,1,0-1.1,1.1A1.694,1.694,0,0,0,790.642,403.014Z" transform="translate(-783.744 -396.092)"/>
        <path id="path_14" data-name="path 14" class="cls-3" d="M855.046,376.127a3.13,3.13,0,1,1-6.146.839v-5.6a.625.625,0,0,1,.864-.568.619.619,0,0,1,.37.544v3.127a3.158,3.158,0,0,1,2.8-.506A3.062,3.062,0,0,1,855.046,376.127Zm-1.263.114a1.833,1.833,0,0,0-1.228-1.1,1.9,1.9,0,0,0-2.421,1.811v.055a1.816,1.816,0,0,0,1.064,1.672A1.908,1.908,0,0,0,853.783,376.241Z" transform="translate(-839.958 -370.76)"/>
        <path id="rectangle_1" data-name="rectangle 1" class="cls-3" d="M0,0H1.218a0,0,0,0,1,0,0V4.444A1.218,1.218,0,0,1,0,5.662H0a0,0,0,0,1,0,0V0A0,0,0,0,1,0,0Z" transform="translate(8.949 3.695)"/>
        <path id="path_15" data-name="path 15" class="cls-3" d="M768.758,379.141V371.15h-1.218v8.067a1.247,1.247,0,0,0,1.247,1.247h.747a.015.015,0,0,0,.015-.015v-1.263H768.8A.044.044,0,0,1,768.758,379.141Z" transform="translate(-767.541 -371.107)"/>
        <path id="path_16" data-name="path 16" class="cls-3" d="M910.3,405.141a2.129,2.129,0,0,1-.776-.135,3.112,3.112,0,0,1-.713-.32c-.045-.028-.088-.058-.13-.088s-.1-.072-.139-.108a2.584,2.584,0,0,1-.463-.482l-.017-.022a.505.505,0,0,1-.09-.172.515.515,0,0,1,.651-.635l.006,0h.006a.328.328,0,0,1,.179.107,2.84,2.84,0,0,0,.334.287,1.977,1.977,0,0,0,1.2.419,1.158,1.158,0,0,0,.73-.225.6.6,0,0,0,.223-.408.674.674,0,0,0-.053-.358.612.612,0,0,0-.217-.232,2.14,2.14,0,0,0-.4-.2c-.166-.065-.382-.137-.642-.214a6.745,6.745,0,0,1-.818-.284,1.947,1.947,0,0,1-.55-.344,1.225,1.225,0,0,1-.316-.469,1.882,1.882,0,0,1-.1-.666,1.6,1.6,0,0,1,.165-.734,1.623,1.623,0,0,1,.458-.552,2.1,2.1,0,0,1,.685-.345,2.886,2.886,0,0,1,.83-.118,3.461,3.461,0,0,1,.765.08,2.916,2.916,0,0,1,1.324.694l0,0,0,0a.712.712,0,0,1,.1.106.61.61,0,0,1,.151.392c0,.007,0,.015,0,.022a.624.624,0,0,1-.575.6l-.044,0a.611.611,0,0,1-.281-.067.245.245,0,0,1-.037-.02.621.621,0,0,1-.125-.1l0,0-.013-.013a1.912,1.912,0,0,0-1.255-.573l-.074,0a1.1,1.1,0,0,0-.5.124.5.5,0,0,0-.281.481.488.488,0,0,0,.067.263.551.551,0,0,0,.232.189,3.19,3.19,0,0,0,.392.158c.156.053.359.115.605.185a6.349,6.349,0,0,1,.726.261,2.262,2.262,0,0,1,.58.357,1.479,1.479,0,0,1,.379.512,1.781,1.781,0,0,1,.138.736,1.6,1.6,0,0,1-.2.794,1.91,1.91,0,0,1-.527.6,2.561,2.561,0,0,1-.744.38A2.724,2.724,0,0,1,910.3,405.141Z" transform="translate(-892.516 -395.759)"/>
      </g>
    </g>
  </g>
</svg>
