<svg xmlns="http://www.w3.org/2000/svg" width="180" height="100" viewBox="0 0 180 100">
  <defs>
    <style>
      .cls-1 {
        fill: #737375;
        opacity: 0;
      }

      .cls-2 {
        opacity: 0.47;
      }

      .cls-3 {
        fill: #3c4252;
      }
    </style>
  </defs>
  <g id="group_93" data-name="group 93" transform="translate(-467 -3299)">
    <rect id="rectangle_53" data-name="rectangle 53" class="cls-1" width="180" height="100" transform="translate(467 3299)"/>
    <g id="group_27" data-name="group 27" class="cls-2" transform="translate(17.375 2796.246)">
      <path id="path_49" data-name="path 49" class="cls-3" d="M494.907,546.766l.328,2.921-4.778,10.41-1.93-.006Z" transform="translate(-1.454 -1.195)"/>
      <path id="path_50" data-name="path 50" class="cls-3" d="M490.176,548.313l.722,1.973-4.236,9.339h-1.886Z" transform="translate(-0.764 -1.513)"/>
      <path id="path_51" data-name="path 51" class="cls-3" d="M498.4,553.079l-.847,1.766,3,6.441,1.774.04Z" transform="translate(-3.115 -2.399)"/>
      <path id="path_52" data-name="path 52" class="cls-3" d="M503.617,565.059h-.265c-1.262,0-2.456-.02-3.967-.04-1.438-.02-2.795-.037-3.836-.037h-6.9c-2.464,0-3.555-.25-5.307-2a8.337,8.337,0,0,1-2.718-6.154V540.27h14.924a6.843,6.843,0,0,1,5.335,2.007,7.457,7.457,0,0,1,2.718,6.033v8.52c0,1.17,0,2.705.007,4.189,0,1.437.007,2.557.007,3.655Zm-22.023-23.786V556.83a7.054,7.054,0,0,0,7.055,7.036h6.9c1.056,0,2.42.018,3.865.037,1.087.014,2.2.029,3.2.036,0-.9,0-1.917-.007-2.914,0-1.486-.007-3.022-.007-4.2v-8.52a7.054,7.054,0,0,0-7.055-7.036Z" transform="translate(0 0)"/>
      <g id="group_26" data-name="group 26" transform="translate(507.795 543.49)">
        <path id="path_53" data-name="path 53" class="cls-3" d="M589.785,549.7a5.185,5.185,0,0,0-4.075,1.98v-2.033h-1.643v14.081h1.643V558.1a5.19,5.19,0,1,0,4.075-8.4Zm0,1.476a3.715,3.715,0,1,1-3.715,3.715A3.72,3.72,0,0,1,589.785,551.172Z" transform="translate(-527.149 -545.282)"/>
        <path id="path_54" data-name="path 54" class="cls-3" d="M617.989,551.253a5.081,5.081,0,0,0-4.035-2.056,5.638,5.638,0,0,0,0,11.246,5.082,5.082,0,0,0,4.035-2.057v2.057h1.523V549.559h-1.523Zm-4.035,7.591a4.035,4.035,0,1,1,3.738-4.025A3.894,3.894,0,0,1,613.953,558.844Z" transform="translate(-531.687 -545.132)"/>
        <path id="path_55" data-name="path 55" class="cls-3" d="M578.192,551.266a5.073,5.073,0,0,0-4.035-2.069,5.675,5.675,0,0,0,0,11.314,5.073,5.073,0,0,0,4.035-2.069v2.15h1.522V549.561h-1.522Zm-4.035,7.637a4.062,4.062,0,1,1,3.738-4.049A3.907,3.907,0,0,1,574.157,558.9Z" transform="translate(-524.365 -545.171)"/>
        <path id="path_56" data-name="path 56" class="cls-3" d="M606.193,558.376a1.383,1.383,0,0,1-.679-.136.8.8,0,0,1-.341-.368,5.52,5.52,0,0,1-.105-1.315v-6.515h2v-1.16h-2v-4.2l-1.558,1.133v3.067h-1.87v1.16h1.87v6.41a6.457,6.457,0,0,0,.242,2.229,1.856,1.856,0,0,0,.837.855c.4.217.541.187,1.261.187a7.737,7.737,0,0,0,1.5-.168l-.287-1.253A6.628,6.628,0,0,1,606.193,558.376Z" transform="translate(-530.382 -544.301)"/>
        <rect id="rectangle_9" data-name="rectangle 9" class="cls-3" width="1.542" height="15.379" transform="translate(89.288 0)"/>
        <rect id="rectangle_10" data-name="rectangle 10" class="cls-3" width="1.334" height="1.659" transform="translate(68.757 0.478)"/>
        <rect id="rectangle_11" data-name="rectangle 11" class="cls-3" width="1.334" height="11.431" transform="translate(68.757 3.924)"/>
        <path id="path_57" data-name="path 57" class="cls-3" d="M541.762,557.529a5.93,5.93,0,0,1-4.074,1.735,5.321,5.321,0,1,1,.014-10.639,5.193,5.193,0,0,1,3.669,1.617l.148.139.917-1.08-.129-.125a6.353,6.353,0,0,0-4.627-1.949c-4.12,0-7,2.774-7,6.745a6.487,6.487,0,0,0,1.992,4.932,7.453,7.453,0,0,0,9.954-.3l.127-.119-.836-1.1Z" transform="translate(-517.328 -544.769)"/>
        <path id="path_58" data-name="path 58" class="cls-3" d="M564.8,557.529a5.931,5.931,0,0,1-4.074,1.735,5.321,5.321,0,1,1,.014-10.639,5.191,5.191,0,0,1,3.669,1.617l.148.139.917-1.08-.129-.125a6.351,6.351,0,0,0-4.627-1.949c-4.12,0-7,2.774-7,6.745a6.487,6.487,0,0,0,1.992,4.932,7.453,7.453,0,0,0,9.954-.3l.127-.119-.836-1.1Z" transform="translate(-521.566 -544.769)"/>
        <path id="path_59" data-name="path 59" class="cls-3" d="M523.971,552.24l4.656,9.689h1.422l-5.356-11.149Z" transform="translate(-516.093 -545.491)"/>
        <path id="path_60" data-name="path 60" class="cls-3" d="M520.317,559.017h-5.254l-.745,1.23h1.922l-1.57,3.2h1.422l1.574-3.2h3.283Z" transform="translate(-514.318 -547.007)"/>
        <path id="path_61" data-name="path 61" class="cls-3" d="M523.182,548.018l-.722-1.46-4.737,9.65h1.428Z" transform="translate(-514.944 -544.647)"/>
      </g>
    </g>
  </g>
</svg>
